<svg xmlns="http://www.w3.org/2000/svg" xmlns:xlink="http://www.w3.org/1999/xlink" height="317" width="226">
<svg y="23" x="10" xmlns:xlink="http://www.w3.org/1999/xlink" xml:space="preserve" width="100" height="150.561797752809" preserveAspectRatio="none"><g><image x="0" y="0" width="100" height="150.561797752809" preserveAspectRatio="none" xlink:href="dg-designer-c10f4888145128622362933068710306008.jpg"/></g></svg>

<svg y="108" x="81" xmlns:xlink="http://www.w3.org/1999/xlink" width="133" height="27" viewBox="0 0 109 27" preserveAspectRatio="none"><g id="0.5862288549542427"><text fill="#FF0000" stroke="none" stroke-width="0" stroke-linecap="round" stroke-linejoin="round" x="50%" text-anchor="middle" y="20" font-size="24px" font-family="arial">Chenchen</text></g></svg>

<svg y="151.856" x="111.778" xmlns:xlink="http://www.w3.org/1999/xlink" xml:space="preserve" width="95" height="146" preserveAspectRatio="none"><g><image x="0" y="0" width="95" height="146" preserveAspectRatio="none" xlink:href="dg-designer-ee80e0a7145128623259909080210395913.jpg"/></g></svg>

<svg y="228" x="42" xmlns:xlink="http://www.w3.org/1999/xlink" width="100" height="63" viewBox="0 0 42 27" preserveAspectRatio="none"><g id="0.36926630581729114"><text fill="#FF0000" stroke="none" stroke-width="0" stroke-linecap="round" stroke-linejoin="round" x="50%" text-anchor="middle" y="20" font-size="24px" font-family="arial">XiXi</text></g></svg>

<svg y="2" x="114" xmlns:xlink="http://www.w3.org/1999/xlink" version="1.0" width="100px" height="114.28571428571px" viewBox="0 0 504 576" enable-background="new 0 0 504 576" xml:space="preserve"><g>
<g id="Layer_1_x23_000000">
	<g>
		<g>
			<path d="M448.772,251.189c2.053,2.874,9.442,0.411,11.495,3.284c-3.78,8.792-10.435,14.744-19.705,18.062     c0.924,3.729,5.251,4.037,4.926,9.032c-7.937,7.116-18.661,4.379-27.094,5.747c-6.671,1.061-18.098,3.37-26.273,6.568     c-14.282,5.56-25.846,18.901-39.41,22.989c-10.861,3.267-21.295,0.394-31.199,6.551c1.163,37.99,16.421,61.869,32.842,84.567     c-12.948,26.991-38.794,41.103-60.74,59.114c1.779,7.509,2.583,16.011,4.105,23.811c8.501,7.697,20.338,7.937,28.72,15.6     c9.801,8.945,10.04,25.657,14.778,37.75c-24.392,9.203-60.654,18.303-91.118,18.885c-9.664,0.188-32.072-4.311-38.589-8.211     c-5.063-3.011-6.038-12.333-11.495-18.884c-6.124-7.355-18.781-13.992-27.915-23.793c-3.78-4.071-8.775-9.031-11.495-14.778     c-3.404-7.235-6.568-16.045-4.926-22.989c14.95-8.587,29.506-17.584,41.873-28.736c-2.891-3.951-5.833-7.852-8.21-12.315     c-8.792,8.74-18.781,6.671-26.273-0.821c-1.728-1.728-2.446-5.422-4.926-7.39c-2.942-2.343-7.886-2.479-9.853-4.104     c-14.625-12.094-12.418-54.805,6.568-59.937c2.429-2.702-2.053-4.104,0-5.747c20.321-5.593,44.045-4.481,46.799,17.242     c6.141-2.07,12.658-10.862,17.242-17.242c0.308-22.202-0.274-43.515-4.926-60.739c-18.559,6.585-38.708,9.921-61.578,6.568     c-10.776-18.234-17.823-44.559-22.168-66.504c-26.136-5.867-49.963-15.36-68.129-32.841c-7.44-7.15-16.01-15.617-20.526-23.81     c-2.891-5.251-3.182-12.538-6.568-18.063c-2.532-4.105-12.589-7.749-13.137-13.137c-0.496-4.721,10.383-16.694,13.137-19.705     c9.87-10.759,24.836-19.175,36.125-27.077c18.029-2.874,32.431,10.109,44.336,18.867c11.289,8.33,20.731,17.208,29.54,24.631     c10.588-2.908,12.743-23.878,8.21-32.003c6.705,0.411,9.339,4.875,14.779,6.551c9.151-10.16,7.834-32.482-1.642-41.035     c1.728,0.53,3.66,2.172,4.926,0.821c1.505-15.087-1.95-27.334,4.105-36.126c9.51-13.787,43.566-16.626,65.683-12.315     c11.546,16.096,21.364,33.902,29.558,53.367c-2.189,26.821-6.381,51.623-13.958,73.056c9.955,9.698,19.5,23.81,29.558,35.304     c6.396,7.321,16.369,10.896,17.241,22.989c1.454,20.252-16.198,40.624-24.631,55.009c1.181,0.462,2.001,1.283,2.463,2.463     c37.187-8.724,73.945-13.838,96.045-39.41c9.339-10.793,15.309-22.339,27.094-30.378c3.438-0.496,4.875,0.205,6.944-1.967     c-2.087,2.994,0.787,11.717-2.839,17.567c14.129-3.661,22.527-13.051,36.946-16.421c0.667,13.804-7.099,19.175-9.031,30.378     c5.319-0.616,16.849-3.353,20.526,3.284C456.06,242.055,451.852,246.058,448.772,251.189z M452.057,256.936     c-4.841-1.779-13.273,2.634-18.062,0.821c6.089-5.816,15.274-12.47,15.6-21.347c-8.638-1.078-22.853,3.284-27.915,5.747     c6.396-11.392,14.796-20.782,18.884-34.483c-14.898,6.175-26.017,16.13-39.41,23.81c-4.875-6.551,6.482-17.498,1.643-23.81     c-8.006,8.228-16.096,11.871-19.705,22.168c-0.924,2.634,0.137,6.192-1.643,9.032c-4.036,6.465-21.997,14.676-28.736,18.062     c-12.743,6.397-24.683,7.578-36.93,10.674c-10.451,2.634-20.337,7.098-30.378,9.852c-10.793,2.959-21.159,5.816-30.379,9.032     c1.865-2.258,5.423-2.788,7.39-4.926c-15.805-6.004-37.836,5.388-40.23,18.062c-1.848,9.784,2.617,23.571,3.284,35.288     c0.479,8.638-2.703,15.445-0.821,22.988c2.771-2.702,1.488-9.459,6.568-9.852c-4.755,18.78-18.422,28.65-32.841,37.768     c0.137-3.627-2.327,0.394-3.284-1.643c4.96-23.912-14.078-30.446-31.2-27.094c-0.325,1.983,1.505,1.796,0.821,4.104     c-10.178,4.055-18.148,10.314-19.705,22.989c0.376,1.095,3.558-0.975,4.105,1.643c-7.304,10.16-4.84,31.935,8.21,33.662     c-0.12-2.6-0.017-4.96,1.642-5.747c5.303,3.712,2.668,11.871,6.568,15.6c8.484,8.125,18.833-4.652,26.273-9.031     c4.242,14.915,13.906,24.408,27.094,30.378c-5.422,0.771-8.416-0.889-11.495-2.463c-15.446,10.28-30.566,20.885-45.978,31.199     c2.035,26.701,21.672,35.801,38.588,47.604c-1.71-32.637,7.749-54.086,17.242-75.519c-2.6,25.675-24.204,53.419-13.137,82.087     c5.508,14.3,22.989,20.714,40.231,22.168c33.218,2.805,63.921-11.443,87.834-20.526c-2.258-5.729-2.463-11.118-4.927-15.582     c-9.664-17.67-30.72-20.868-46.782-32.021c3.866,0.496,5.029,3.712,9.032,4.104c-1.249-14.915-6.739-29.934-4.927-45.156     c-0.53,7.099,1.711,11.408,1.643,18.062c15.719-11.546,37.066-24.854,48.424-41.052c2.651-3.764,8.519-15.395,8.21-21.347     c-0.324-6.74-9.391-16.575-13.136-23.811c-6.415-12.436-10.127-23.998-12.299-37.768c-5.371-2.703-8.364-9.938-13.137-6.568     c-1.539-1.454,0.667-2.087,0-4.927c-3.37-0.838-6.723,2.532-9.031,0c6.568-5.969,17.139-8.467,25.435-11.494     c5.354-1.933,10.52-1.711,16.421-3.267c16.062-4.242,36.263-19.757,52.547-24.632c16.608-4.994,27.778-7.817,38.589-13.958     c-0.992,4.208-6.415,3.986-8.211,7.39c6.928,0.085,13.291-0.394,18.884-1.642c-1.847-5.269-7.868-5.987-10.673-8.21     C436.218,268.431,449.662,264.719,452.057,256.936z M270.625,265.146c9.048-14.745,37.665-39.41,20.525-62.399     c-5.303-7.099-15.395-14.898-23.81-24.631c-12.213-14.078-30.345-35.527-47.621-41.052c-10.177-3.232-22.784-0.034-27.094-8.21     c7.424-0.838,11.443,6.072,18.063,3.284c-7.27-16.661-13.103-64.76,4.105-72.234c-5.285,9.014-10.622,29.164-5.747,40.231     c6.38,14.454,18.85,33.542,35.305,35.287c-10.981,11.29-23.947-5.183-30.378-11.494c-0.564,3.062-2.908,7.577-1.642,9.852     c18.456,1.522,26.136,13.821,37.768,22.168c3.284-4.311,1.557-9.545,2.463-14.779c3.541-20.458,14.385-40.983,9.031-60.74     c-4.584-16.9-16.54-28.941-23.81-44.336c-16.267-7.287-48.458-3.968-57.473,9.031c-6.842,9.87-2.155,26.427-2.463,41.873     c7.235,10.177,19.38,23.622,13.137,41.856c0.325-15.36-2.72-27.368-11.495-33.646c3.49,15.035-5.576,38.52-19.705,25.435     c5.046,26.667-19.175,28.445-19.705,46.799c0.12-1.522,0.547-2.737,1.642-3.284c-11.478,22.374-10.194,68.181-1.642,93.599     c2.908,8.621,4.618,17.892,7.389,22.989c2.241,4.088,11.187,12.863,13.137,13.137c26.205,3.558,51.64-6.637,71.43-13.958     C246.592,274.537,263.252,274.623,270.625,265.146z M136.795,169.906c0.804-6.312,3.165-11.067,5.748-15.6     c-8.895-9.887-16.25-19.722-27.898-27.094c-11.101-6.996-23.468-12.949-33.663-21.33c-23.263,5.2-34.176,22.75-47.62,37.75     c-0.325,3.062,3.951,1.522,4.105,4.105c-0.085,17.601,12.213,22.818,17.242,35.305c20.954,19.277,43.327,37.135,77.16,43.515     c0.137-9.219-0.085-25.042,0-36.947c-3.985-8.467-13.393-17.926-23.793-14.778c0.445-4.738,6.928-3.473,7.39-8.21     c-14.881-3.729-24.717-12.521-39.41-16.421c-1.762,1.796-2.258,4.858-4.105,6.568c-0.428-6.346,6.243-10.93,4.105-13.958     c20.543,5.183,41.138,10.314,50.887,26.273c-2.275,1.283-6.141,0.975-7.372,3.284c8.125,1.454,9.288,9.853,13.12,15.6     c1.231-4.516,1.061-10.434,3.284-13.958c-2.874-1.984-3.763-5.234-2.463-8.21C135.324,166.451,134.589,169.667,136.795,169.906z"/>
			<path d="M411.826,199.463c-0.137,0.171-0.291,0.325-0.428,0.479C411.518,199.754,411.655,199.601,411.826,199.463z"/>
			<path d="M256.667,252.831c4.618,3.797,15.702,4.789,13.958,12.315c-3.045,0.24-2.96,3.609-7.39,2.463     C261.439,262.701,255.641,257.843,256.667,252.831z"/>
			<path d="M241.067,229.021c1.847,2.446,5.559,11.135,4.926,10.673c-2.874-3.147-5.337-6.705-8.21-9.853     c-12.88-4.909-30.43-5.148-42.694-10.673c-9.374-16.181,31.883-33.663,49.262-32.021     C250.954,198.882,246.712,219.613,241.067,229.021z M238.604,226.558c4.208-9.972,8.142-22.339,4.926-35.305     c-19.312,0.958-39.769,7.834-47.62,22.989C205.113,223.376,225.587,221.238,238.604,226.558z"/>
			<path d="M233.678,183.043c-2.275,2.377-4.55,4.755-9.031,4.926c-1.916-4.105-5.627-6.414-5.747-12.315     C226.032,175.91,229.47,179.878,233.678,183.043z"/>
			<path d="M177.026,198.643c5.166,1.146,8.364,4.242,9.853,9.031c-2.549,1.009-3.301,3.814-7.39,3.284     C177.967,207.879,175.812,201.824,177.026,198.643z"/>
		</g>
	</g>
</g>
<g id="Layer_3_x23_FFFFFF">
	<g>
		<g>
			<path fill="#FFFFFF" d="M433.994,257.757c4.789,1.813,13.222-2.6,18.062-0.821c-2.395,7.783-15.839,11.495-23.81,16.421     c2.805,2.224,8.826,2.942,10.673,8.21c-5.593,1.249-11.956,1.728-18.884,1.642c1.796-3.404,7.219-3.182,8.211-7.39     c-10.811,6.141-21.98,8.963-38.589,13.958c-16.284,4.875-36.485,20.39-52.547,24.632c-5.901,1.556-11.066,1.334-16.421,3.267     c-8.296,3.027-18.866,5.525-25.435,11.494c2.309,2.532,5.661-0.838,9.031,0c0.667,2.84-1.539,3.473,0,4.927     c4.772-3.37,7.766,3.865,13.137,6.568c2.172,13.77,5.884,25.332,12.299,37.768c3.745,7.235,12.812,17.07,13.136,23.811     c0.309,5.952-5.559,17.583-8.21,21.347c-11.357,16.198-32.705,29.506-48.424,41.052c0.068-6.654-2.173-10.964-1.643-18.062     c-1.812,15.223,3.678,30.241,4.927,45.156c-4.003-0.393-5.166-3.608-9.032-4.104c16.062,11.152,37.118,14.351,46.782,32.021     c2.464,4.464,2.669,9.853,4.927,15.582c-23.913,9.083-54.616,23.331-87.834,20.526c-17.242-1.454-34.723-7.868-40.231-22.168     c-11.067-28.668,10.537-56.412,13.137-82.087c-9.494,21.433-18.953,42.882-17.242,75.519     c-16.917-11.803-36.553-20.902-38.588-47.604c15.412-10.314,30.532-20.919,45.978-31.199c3.079,1.574,6.072,3.233,11.495,2.463     c-13.188-5.97-22.853-15.463-27.094-30.378c-7.441,4.379-17.79,17.156-26.273,9.031c-3.9-3.729-1.266-11.888-6.568-15.6     c-1.659,0.787-1.762,3.147-1.642,5.747c-13.051-1.728-15.514-23.502-8.21-33.662c-0.547-2.617-3.729-0.548-4.105-1.643     c1.557-12.675,9.527-18.935,19.705-22.989c0.684-2.309-1.146-2.121-0.821-4.104c17.122-3.353,36.16,3.182,31.2,27.094     c0.958,2.036,3.421-1.984,3.284,1.643c14.419-9.117,28.086-18.987,32.841-37.768c-5.08,0.393-3.797,7.149-6.568,9.852     c-1.881-7.543,1.3-14.351,0.821-22.988c-0.667-11.717-5.132-25.504-3.284-35.288c2.395-12.674,24.426-24.066,40.23-18.062     c-1.967,2.138-5.524,2.668-7.39,4.926c9.22-3.216,19.586-6.072,30.379-9.032c10.041-2.754,19.927-7.218,30.378-9.852     c12.247-3.096,24.187-4.276,36.93-10.674c6.739-3.387,24.7-11.597,28.736-18.062c1.779-2.84,0.719-6.397,1.643-9.032     c3.609-10.297,11.699-13.94,19.705-22.168c4.84,6.312-6.518,17.259-1.643,23.81c13.394-7.68,24.512-17.635,39.41-23.81     c-4.088,13.701-12.487,23.092-18.884,34.483c5.062-2.463,19.277-6.825,27.915-5.747     C449.269,245.288,440.083,251.941,433.994,257.757z"/>
			<path fill="#FFFFFF" d="M291.15,202.748c17.14,22.989-11.478,47.654-20.525,62.399c1.744-7.526-9.34-8.518-13.958-12.315     c-1.026,5.012,4.772,9.87,6.568,14.779c4.43,1.146,4.345-2.224,7.39-2.463c-7.373,9.476-24.033,9.391-38.589,14.779     c-19.79,7.321-45.225,17.515-71.43,13.958c-1.95-0.273-10.896-9.048-13.137-13.137c-2.771-5.097-4.481-14.368-7.389-22.989     c-8.552-25.418-9.835-71.225,1.642-93.599c-1.095,0.547-1.522,1.762-1.642,3.284c0.53-18.354,24.751-20.132,19.705-46.799     c14.128,13.085,23.194-10.4,19.705-25.435c8.775,6.277,11.82,18.285,11.495,33.646c6.243-18.234-5.901-31.679-13.137-41.856     c0.308-15.446-4.379-32.003,2.463-41.873c9.014-13,41.206-16.318,57.473-9.031c7.27,15.395,19.226,27.436,23.81,44.336     c5.354,19.756-5.49,40.282-9.031,60.74c-0.907,5.234,0.821,10.468-2.463,14.779c-11.631-8.348-19.312-20.646-37.768-22.168     c-1.266-2.275,1.078-6.791,1.642-9.852c6.431,6.312,19.397,22.784,30.378,11.494c-16.455-1.745-28.925-20.833-35.305-35.287     c-4.875-11.067,0.462-31.217,5.747-40.231c-17.208,7.475-11.375,55.574-4.105,72.234c-6.62,2.788-10.639-4.123-18.063-3.284     c4.311,8.176,16.917,4.978,27.094,8.21c17.276,5.525,35.408,26.975,47.621,41.052     C275.756,187.849,285.848,195.649,291.15,202.748z M245.994,239.694c0.633,0.462-3.079-8.228-4.926-10.673     c5.645-9.408,9.887-30.139,3.284-41.873c-17.379-1.642-58.636,15.839-49.262,32.021c12.264,5.525,29.813,5.764,42.694,10.673     C240.657,232.989,243.12,236.547,245.994,239.694z M224.646,187.969c4.481-0.171,6.756-2.548,9.031-4.926     c-4.208-3.165-7.646-7.133-14.778-7.39C219.019,181.555,222.731,183.864,224.646,187.969z M186.879,207.674     c-1.488-4.79-4.687-7.885-9.853-9.031c-1.214,3.182,0.941,9.237,2.463,12.315C183.578,211.488,184.33,208.683,186.879,207.674z"/>
			<path fill="#FFFFFF" d="M142.543,154.307c-2.583,4.533-4.943,9.288-5.748,15.6c-2.207-0.24-1.471-3.455-3.284-4.105     c-1.3,2.977-0.411,6.227,2.463,8.21c-2.224,3.524-2.053,9.442-3.284,13.958c-3.832-5.747-4.995-14.146-13.12-15.6     c1.231-2.309,5.097-2.001,7.372-3.284c-9.75-15.959-30.344-21.09-50.887-26.273c2.138,3.027-4.533,7.612-4.105,13.958     c1.847-1.71,2.343-4.772,4.105-6.568c14.693,3.9,24.529,12.692,39.41,16.421c-0.462,4.738-6.945,3.472-7.39,8.21     c10.4-3.147,19.808,6.312,23.793,14.778c-0.085,11.905,0.137,27.728,0,36.947c-33.833-6.38-56.207-24.238-77.16-43.515     c-5.029-12.487-17.328-17.704-17.242-35.305c-0.154-2.583-4.43-1.043-4.105-4.105c13.444-15.001,24.357-32.551,47.62-37.75     c10.195,8.381,22.562,14.334,33.663,21.33C126.293,134.584,133.648,144.42,142.543,154.307z"/>
		</g>
	</g>
</g>
<g id="Layer_2_x23_F4C1C9">
	<g>
		<g>
			<path fill="#F3C1C9" d="M243.53,191.253c3.216,12.966-0.718,25.333-4.926,35.305c-13.017-5.319-33.491-3.181-42.694-12.315     C203.761,199.087,224.219,192.211,243.53,191.253z"/>
		</g>
	</g>
</g>
</g></svg>
</svg>